<svg width="48" height="48" viewBox="0 0 48 48" fill="none" xmlns="http://www.w3.org/2000/svg">
<g id="Icon/Outline/arrow-down">
<path id="Mask" fill-rule="evenodd" clip-rule="evenodd" d="M16.1836 20L24.0036 29.644L31.9736 20H16.1836ZM23.9996 34C22.9876 34 22.0196 33.534 21.3476 32.716L12.9216 22.52C11.9136 21.298 11.7136 19.564 12.4036 18.098C13.0136 16.804 14.2276 16 15.5736 16H32.4256C33.7716 16 34.9856 16.804 35.5956 18.098C36.2876 19.564 36.0856 21.298 35.0796 22.518L26.6516 32.716C25.9796 33.534 25.0116 34 23.9996 34Z" fill="#F8AF2A"/>
<mask id="mask0" mask-type="alpha" maskUnits="userSpaceOnUse" x="11" y="16" width="26" height="18">
<path id="Mask_2" fill-rule="evenodd" clip-rule="evenodd" d="M16.1836 20L24.0036 29.644L31.9736 20H16.1836ZM23.9996 34C22.9876 34 22.0196 33.534 21.3476 32.716L12.9216 22.52C11.9136 21.298 11.7136 19.564 12.4036 18.098C13.0136 16.804 14.2276 16 15.5736 16H32.4256C33.7716 16 34.9856 16.804 35.5956 18.098C36.2876 19.564 36.0856 21.298 35.0796 22.518L26.6516 32.716C25.9796 33.534 25.0116 34 23.9996 34Z" fill="white"/>
</mask>
<g mask="url(#mask0)">
<g id="&#240;&#159;&#142;&#168; Color">
<rect id="Base" width="48" height="48" fill="#F8AF2A"/>
</g>
</g>
</g>
</svg>
